<svg width="625" height="761" viewBox="0 0 625 761" fill="none" xmlns="http://www.w3.org/2000/svg">
<ellipse cx="246.995" cy="229.973" rx="84.1449" ry="85.0201" fill="#252D3A"/>
<path d="M162.304 311.661C141.327 311.697 120.55 307.638 101.156 299.713C81.7648 291.789 64.1375 280.155 49.2827 265.477C34.426 250.799 22.6356 233.363 14.5787 214.167C6.52176 194.97 2.35911 174.386 2.32799 153.592L162.067 153.315L162.304 311.661Z" fill="#353F51" fill-opacity="0.85"/>
<path d="M162.492 478.692C141.515 478.786 120.728 474.785 101.316 466.914C81.906 459.043 64.251 447.458 49.3613 432.821C34.4696 418.184 22.6375 400.781 14.5349 381.607C6.43216 362.433 2.2204 341.86 2.13966 321.066L161.878 320.347L162.492 478.692Z" fill="#353F51" fill-opacity="0.85"/>
<path d="M624.732 401.406C624.767 422.455 621.005 443.305 613.66 462.766C606.316 482.227 595.532 499.917 581.926 514.828C568.319 529.738 552.156 541.576 534.36 549.666C516.563 557.755 497.482 561.938 478.203 561.975C458.927 562.013 439.83 557.904 422.007 549.884C404.184 541.863 387.98 530.088 374.325 515.231C360.668 500.373 349.826 482.725 342.416 463.293C335.007 443.86 331.175 423.025 331.14 401.976L624.732 401.406Z" fill="#535C6B"/>
<path d="M458.643 119.837C479.621 119.939 500.374 124.134 519.722 132.186C539.068 140.239 556.629 151.988 571.4 166.763C586.174 181.539 597.865 199.052 605.812 218.301C613.76 237.551 617.806 258.162 617.719 278.956L457.981 278.181L458.643 119.837Z" fill="#353F51" fill-opacity="0.85"/>
<path d="M165.44 637.923L165.44 479.458L338.958 479.458C338.958 500.268 334.47 520.875 325.749 540.099C317.028 559.326 304.247 576.794 288.133 591.509C272.021 606.224 252.893 617.897 231.842 625.86C210.791 633.826 188.226 637.923 165.44 637.923Z" fill="#353F51"/>
<path d="M165.77 479.692L164.145 321.236L337.652 319.174C337.866 339.983 333.589 360.642 325.066 379.969C316.543 399.297 303.942 416.917 287.98 431.822C272.02 446.728 253.012 458.628 232.044 466.841C211.076 475.056 188.555 479.421 165.77 479.692Z" fill="#252D3A"/>
<path d="M324.668 758.408C324.787 732.91 328.777 707.684 336.412 684.168C344.045 660.653 355.173 639.309 369.159 621.355C383.146 603.401 399.717 589.189 417.926 579.529C436.136 569.871 455.627 564.954 475.288 565.061C494.948 565.167 514.394 570.295 532.511 580.15C550.629 590.006 567.068 604.397 580.885 622.502C594.704 640.607 605.63 662.07 613.045 685.667C620.458 709.264 624.212 734.532 624.093 760.03L324.668 758.408Z" fill="#2B3342"/>
<path d="M159.648 739.769C138.682 739.003 118.052 734.153 98.9322 725.492C79.8143 716.831 62.5818 704.531 48.2204 689.294C33.857 674.058 22.6489 656.182 15.2301 636.69C7.81123 617.198 4.32994 596.467 4.9845 575.685L164.632 581.514L159.648 739.769Z" fill="#031026" fill-opacity="0.94"/>
<path d="M458.572 4.83872L458.054 163.303L284.537 162.646C284.605 141.835 289.16 121.246 297.944 102.055C306.727 82.8616 319.565 65.4414 335.727 50.7879C351.887 36.1343 371.054 24.5335 392.131 16.6498C413.208 8.76423 435.785 4.75239 458.572 4.83872Z" fill="#252D3A"/>
<path d="M331.14 400.013C331.216 383.88 335.083 367.926 342.523 353.062C349.961 338.197 360.827 324.713 374.497 313.38C388.168 302.046 404.376 293.085 422.195 287.007C440.017 280.93 459.1 277.856 478.358 277.96C497.615 278.064 516.67 281.345 534.432 287.615C552.194 293.885 568.319 303.022 581.882 314.503C595.446 325.984 606.184 339.585 613.484 354.53C620.783 369.474 624.501 385.469 624.426 401.602L331.14 400.013Z" fill="#2B3342"/>
<path d="M334.304 -2.76713e-06C334.521 20.1245 330.777 40.1002 323.284 58.7883C315.794 77.4761 304.702 94.5098 290.644 108.917C276.585 123.324 259.835 134.822 241.351 142.754C222.864 150.687 203.007 154.898 182.908 155.149C162.811 155.399 142.866 151.683 124.216 144.214C105.566 136.744 88.572 125.667 74.2084 111.614C59.8431 97.5612 48.3894 80.8085 40.4975 62.3124C32.6074 43.8161 28.435 23.939 28.2187 3.81448L334.304 -2.76713e-06Z" fill="#2B3342"/>
<ellipse cx="281.301" cy="669.708" rx="88.6757" ry="91.2921" fill="#252D3A"/>
</svg>
